# xmcd CD database file
#
# Track frame offsets:
#	183
#	14910
#	29958
#	39365
#	52850
#	75410
#	93628
#	115620
#	137660
#	156603
#	167388
#	188498
#	200208
#
# Disc length: 2830 seconds
#
# Revision: 2
# Processed by: cddbd v1.5.2PL0 Copyright (c) Steve Scherf et al.
# Submitted via: CDex 1.70beta2
#
DISCID=ac0b0c0d
DTITLE=Hopkins Lightnin´ - Shake It Baby (1988)
DYEAR=1965
DGENRE=Blues
TTITLE0=Big Car Blues
TTITLE1=Ball Of Twine
TTITLE2=Coffee House Blues
TTITLE3=Stool Pigeon Blues
TTITLE4=I'll Be Gone
TTITLE5=Shining Moon
TTITLE6=ShakeIit Baby
TTITLE7=Goin' Back Homes
TTITLE8=Good Times
TTITLE9=What Did A Say
TTITLE10=Don't Wake Me
TTITLE11=Talk Of The Town
TTITLE12=Shaggy Dad
EXTD=YEAR: 1965
EXTT0=
EXTT1=
EXTT2=
EXTT3=
EXTT4=
EXTT5=
EXTT6=
EXTT7=
EXTT8=
EXTT9=
EXTT10=
EXTT11=
EXTT12=
PLAYORDER=
